# xmcd CD database file
#
# Track frame offsets:
#	150
#	17068
#	38515
#
# Disc length: 748 seconds
#
# Revision: 0
# Processed by: cddbd v1.5.1PL0 Copyright (c) Steve Scherf et al.
# Submitted via: CDex 1.51
#
DISCID=1602ea03
DTITLE=TobaccoJuice - TobaccoJuice
DYEAR=2005
DGENRE=Rock
TTITLE0=トライアングル
TTITLE1=パーティーブルース
TTITLE2=ソファ
EXTD=YEAR: 2005
EXTT0=
EXTT1=
EXTT2=
PLAYORDER=
